SplineFontDB: 3.2
FontName: QuasarOpen-Black
FullName: Quasar Open Black
FamilyName: Quasar Open
Weight: Black
Copyright: Copyright (c) 2023, neilb
UComments: "2023-12-15: Created with FontForge (http://fontforge.org)"
Version: 000.001
ItalicAngle: 0
UnderlinePosition: -100
UnderlineWidth: 50
Ascent: 800
Descent: 200
InvalidEm: 0
LayerCount: 2
Layer: 0 0 "Back" 1
Layer: 1 0 "Fore" 0
XUID: [1021 441 2049316168 16478]
StyleMap: 0x0000
FSType: 0
OS2Version: 0
OS2_WeightWidthSlopeOnly: 0
OS2_UseTypoMetrics: 1
CreationTime: 1702635369
ModificationTime: 1704628823
OS2TypoAscent: 0
OS2TypoAOffset: 1
OS2TypoDescent: 0
OS2TypoDOffset: 1
OS2TypoLinegap: 90
OS2WinAscent: 0
OS2WinAOffset: 1
OS2WinDescent: 0
OS2WinDOffset: 1
HheadAscent: 0
HheadAOffset: 1
HheadDescent: 0
HheadDOffset: 1
MarkAttachClasses: 1
DEI: 91125
Encoding: UnicodeFull
UnicodeInterp: none
NameList: AGL For New Fonts
DisplaySize: -48
AntiAlias: 1
FitToEm: 1
WinInfo: 16 16 8
BeginPrivate: 0
EndPrivate
Grid
-1000 500.25 m 0
 2000 500.25 l 1024
EndSplineSet
BeginChars: 1114113 34

StartChar: i
Encoding: 105 105 0
Width: 335
Flags: HMW
LayerCount: 2
Fore
SplineSet
68 679 m 0
 68 734 113 779 168 779 c 0
 223 779 268 734 268 679 c 0
 268 624 223 579 168 579 c 0
 113 579 68 624 68 679 c 0
80 500 m 1
 255 500 l 1
 255 0 l 1
 80 0 l 1
 80 500 l 1
EndSplineSet
EndChar

StartChar: o
Encoding: 111 111 1
Width: 600
Flags: HMW
LayerCount: 2
Back
SplineSet
40 250 m 0
 40 394 156 510 300 510 c 0
 444 510 560 394 560 250 c 0
 560 106 444 -10 300 -10 c 0
 156 -10 40 106 40 250 c 0
70 250 m 0
 70 121 166 15 300 15 c 0
 434 15 530 121 530 250 c 0
 530 379 434 485 300 485 c 0
 166 485 70 379 70 250 c 0
EndSplineSet
Fore
SplineSet
215 250 m 3
 215 207 249 165 300 165 c 3
 351 165 385 207 385 250 c 3
 385 293 351 335 300 335 c 3
 249 335 215 293 215 250 c 3
  Spiro
    215 250 o
    225.239 208.001 o
    254.445 177.014 o
    300 165 o
    345.555 177.014 o
    374.761 208.001 o
    385 250 o
    374.761 291.999 o
    345.555 322.986 o
    300 335 o
    254.445 322.986 o
    225.239 291.999 o
    0 0 z
  EndSpiro
40 250 m 3
 40 391.003448235 149 510 300 510 c 3
 453 510 560 388.007042079 560 250 c 3
 560 111 453 -10 300 -10 c 3
 150 -10 40 109 40 250 c 3
  Spiro
    40 250 o
    73.121 381.736 o
    164.264 474.882 o
    300 510 o
    437.514 474.882 o
    527.767 381.736 o
    560 250 o
    527.767 118.264 o
    437.514 25.118 o
    300 -10 o
    164.264 25.118 o
    73.121 118.264 o
    0 0 z
  EndSpiro
EndSplineSet
EndChar

StartChar: n
Encoding: 110 110 2
Width: 610
Flags: HMW
LayerCount: 2
Back
SplineSet
75 280 m 0
 75 407 178 510 305 510 c 0
 432 510 535 407 535 280 c 0
 535 153 432 50 305 50 c 0
 178 50 75 153 75 280 c 0
250 280 m 0
 250 310 275 335 305 335 c 0
 335 335 360 310 360 280 c 0
 360 250 335 225 305 225 c 0
 275 225 250 250 250 280 c 0
220 250 m 3
 220 205 252 165 305 165 c 3
 358 165 390 205 390 250 c 3
 390 295 358 335 305 335 c 3
 252 335 220 295 220 250 c 3
  Spiro
    220 250 o
    230.239 208.001 o
    259.445 177.014 o
    305 165 o
    350.555 177.014 o
    379.761 208.001 o
    390 250 o
    379.761 291.999 o
    350.555 322.986 o
    305 335 o
    259.445 322.986 o
    230.239 291.999 o
    0 0 z
  EndSpiro
45 250 m 3
 45 395 151 510 305 510 c 3
 463 510 565 395 565 250 c 3
 565 105 463 -10 305 -10 c 3
 151 -10 45 105 45 250 c 3
  Spiro
    45 250 o
    78.121 381.736 o
    169.264 474.882 o
    305 510 o
    442.514 474.882 o
    532.767 381.736 o
    565 250 o
    532.767 118.264 o
    442.514 25.118 o
    305 -10 o
    169.264 25.118 o
    78.121 118.264 o
    0 0 z
  EndSpiro
EndSplineSet
Fore
SplineSet
70 270 m 2
 70 419 188 510 305 510 c 0
 422 510 540 419 540 270 c 2
 540 0 l 9
 365 0 l 17
 365 270 l 2
 365 313 338 335 305 335 c 3
 272 335 245 313 245 270 c 2
 245 0 l 9
 70 0 l 17
 70 270 l 2
EndSplineSet
EndChar

StartChar: a
Encoding: 97 97 3
Width: 630
Flags: HMW
LayerCount: 2
Back
SplineSet
40 250 m 0
 40 394 156 510 300 510 c 0
 444 510 560 394 560 250 c 0
 560 106 444 -10 300 -10 c 0
 156 -10 40 106 40 250 c 0
215 250 m 0
 215 297 253 335 300 335 c 0
 347 335 385 297 385 250 c 0
 385 203 347 165 300 165 c 0
 253 165 215 203 215 250 c 0
EndSplineSet
Fore
SplineSet
300 335 m 3
 250 335 215 294 215 250 c 0
 215 205 251 165 300 165 c 0
 312.019857621 165 320.12109375 166.654296875 332 170.997070312 c 1
 332 -8.1669921875 l 1
 324.494140625 -9.0341796875 312.482421875 -10 300 -10 c 0
 156 -10 40 105 40 249 c 0
 40 393 156 510 300 510 c 0
 431 510 550 410 550 248 c 2
 550 0 l 9
 375 0 l 17
 375 246 l 2
 375 309 338 335 300 335 c 3
EndSplineSet
EndChar

StartChar: g
Encoding: 103 103 4
Width: 596
Flags: HMW
LayerCount: 2
Back
SplineSet
553 332 m 1
 298 332 l 2
 258 332 218 300 218 252 c 3
 218 208 254 172 298 172 c 0
 342 172 378 208 378 252 c 0
 378 265 375 278 369 289 c 1
 549 289 l 1
 551 275 553 260 553 245 c 0
 553 139 489 49 397 10 c 0
 366 -3 331 22 296 22 c 0
 263 22 233 -4 204 8 c 0
 110 45 43 137 43 245 c 0
 43 386 157 500 298 500 c 2
 553 500 l 1
 553 332 l 1
218 -83 m 0
 218 -127 254 -163 298 -163 c 0
 342 -163 378 -127 378 -83 c 0
 378 -39 342 -3 298 -3 c 0
 254 -3 218 -39 218 -83 c 0
43 -83 m 0
 43 58 157 172 298 172 c 0
 439 172 553 58 553 -83 c 0
 553 -224 439 -338 298 -338 c 0
 157 -338 43 -224 43 -83 c 0
EndSplineSet
Fore
SplineSet
218 -83 m 0
 218 -127 254 -163 298 -163 c 0
 342 -163 378 -127 378 -83 c 0
 378 -39 342 -3 298 -3 c 0
 254 -3 218 -39 218 -83 c 0
43 -88 m 0
 43 53 172 127 298 127 c 0
 424 127 553 53 553 -88 c 0
 553 -222 439 -338 298 -338 c 0
 157 -338 43 -222 43 -88 c 0
298 332 m 2
 258 332 218 300 218 252 c 3
 218 208 254 172 298 172 c 0
 342 172 378 208 378 252 c 0
 378 265 375 278 369 289 c 1
 549 289 l 1
 551 275 553 260 553 245 c 0
 553 104 424 35 298 35 c 0
 172 35 43 109 43 250 c 0
 43 384 157 500 298 500 c 2
 553 500 l 1
 553 332 l 1
 298 332 l 2
EndSplineSet
EndChar

StartChar: r
Encoding: 114 114 5
Width: 421
Flags: HMW
LayerCount: 2
Back
SplineSet
255 250 m 7
 255 207 289 165 340 165 c 7
 391 165 425 207 425 250 c 7
 425 293 391 335 340 335 c 7
 289 335 255 293 255 250 c 7
  Spiro
    255 250 o
    265.239 208.001 o
    294.445 177.014 o
    340 165 o
    385.555 177.014 o
    414.761 208.001 o
    425 250 o
    414.761 291.999 o
    385.555 322.986 o
    340 335 o
    294.445 322.986 o
    265.239 291.999 o
    0 0 z
  EndSpiro
80 250 m 7
 80 391.00390625 189 510 340 510 c 7
 493 510 600 388.006835938 600 250 c 7
 600 111 493 -10 340 -10 c 7
 190 -10 80 109 80 250 c 7
  Spiro
    80 250 o
    113.121 381.736 o
    204.264 474.882 o
    340 510 o
    477.514 474.882 o
    567.767 381.736 o
    600 250 o
    567.767 118.264 o
    477.514 25.118 o
    340 -10 o
    204.264 25.118 o
    113.121 118.264 o
    0 0 z
  EndSpiro
EndSplineSet
Fore
SplineSet
340 510 m 3
 364 510 385 507 401 503 c 1
 401 328 l 1
 386 333 368 335 355 335 c 3
 275.991210938 335 255 283 255 250 c 2
 255 0 l 1
 80 0 l 1
 80 250 l 2
 80 398 195.996296347 510 340 510 c 3
EndSplineSet
EndChar

StartChar: x
Encoding: 120 120 6
Width: 547
Flags: HMW
LayerCount: 2
Back
SplineSet
61 1030 m 1
 185 1030 253 971 273 933 c 1
 293 971 362 1030 486 1030 c 1
 486 855 l 1
 387 855 361 819 361 780 c 0
 361 741 387 705 486 705 c 1
 486 530 l 1
 362 530 293 589 273 627 c 1
 253 589 185 530 61 530 c 1
 61 705 l 1
 160 705 186 741 186 780 c 0
 186 819 160 855 61 855 c 1
 61 1030 l 1
60.5 500 m 1
 137.704101562 500 238.099609375 474.1171875 272.6875 391.905273438 c 1
 307.5234375 474.376953125 408.346679688 500 485.5 500 c 1
 485.5 325 l 1
 394.5 325 360.5 293 360.5 250 c 0
 360.5 207 394.5 175 485.5 175 c 1
 485.5 0 l 1
 408.857421875 0 308.061523438 25.6123046875 273.112304688 108.06640625 c 1
 238.517578125 25.7861328125 137.983398438 0 60.5 0 c 1
 60.5 175 l 1
 151.5 175 185.5 207 185.5 250 c 0
 185.5 293 151.5 325 60.5 325 c 1
 60.5 500 l 1
30.5 500 m 1
 253.5 500 360.5 388.006835938 360.5 250 c 3
 360.5 111 253.5 0 30.5 0 c 1
 30.5 175 l 1
 151.5 175 185.5 207 185.5 250 c 1
 185.5 293 151.5 325 30.5 325 c 1
 30.5 500 l 1
515.5 0 m 1
 295.5 0 185.5 109 185.5 250 c 3
 185.5 391.00390625 294.5 500 515.5 500 c 1
 515.5 325 l 1
 394.5 325 360.5 293 360.5 250 c 3
 360.5 207 394.5 175 515.5 175 c 1
 515.5 0 l 1
EndSplineSet
Fore
SplineSet
88 335 m 3
 71 335 56 333 40 328 c 1
 40 503 l 1
 56 507 77 510 101 510 c 3
 251 510 316 391 316 250 c 3
 316 108.99609375 252 -10 101 -10 c 3
 77 -10 56 -7 40 -3 c 1
 40 172 l 1
 56 167 70.970703125 165 88 165 c 3
 154.0078125 165 186 207 186 250 c 3
 186 293 154 335 88 335 c 3
459 165 m 3
 476 165 491 167 507 172 c 1
 507 -3 l 1
 491 -7 470 -10 446 -10 c 3
 296 -10 231 109 231 250 c 3
 231 391.00390625 295 510 446 510 c 3
 470 510 491 507 507 503 c 1
 507 328 l 1
 491 333 476.029296875 335 459 335 c 3
 392.9921875 335 361 293 361 250 c 3
 361 207 393 165 459 165 c 3
EndSplineSet
EndChar

StartChar: q
Encoding: 113 113 7
Width: 630
Flags: HMWO
LayerCount: 2
Fore
SplineSet
300 335 m 3
 250 335 215 294 215 250 c 0
 215 205 251 165 300 165 c 0
 312.019857621 165 320.12109375 166.654296875 332 170.997070312 c 1
 332 -8.1669921875 l 1
 324.494140625 -9.0341796875 312.482421875 -10 300 -10 c 0
 156 -10 40 105 40 249 c 0
 40 393 156 510 300 510 c 0
 431 510 550 410 550 248 c 2
 550 -328 l 9
 375 -328 l 17
 375 246 l 2
 375 309 338 335 300 335 c 3
EndSplineSet
EndChar

StartChar: l
Encoding: 108 108 11
Width: 335
Flags: HMW
LayerCount: 2
Fore
SplineSet
80 828 m 1
 255 828 l 1
 255 0 l 1
 80 0 l 1
 80 828 l 1
EndSplineSet
EndChar

StartChar: h
Encoding: 104 104 13
Width: 610
Flags: HMW
LayerCount: 2
Back
SplineSet
70 828 m 1
 245 828 l 1
 245 0 l 1
 70 0 l 1
 70 828 l 1
70 280 m 2
 70 419 186 510 300 510 c 0
 414 510 530 419 530 280 c 2
 530 0 l 9
 355 0 l 17
 355 280 l 2
 355 313 330 335 300 335 c 3
 270 335 245 313 245 280 c 2
 245 0 l 9
 70 0 l 17
 70 280 l 2
EndSplineSet
Fore
SplineSet
70 828 m 1
 245 828 l 1
 245 0 l 1
 70 0 l 1
 70 828 l 1
180 270 m 2
 180 399 216 510 330 510 c 0
 454 510 540 419 540 270 c 2
 540 0 l 9
 365 0 l 17
 365 270 l 2
 365 313 338 335 305 335 c 3
 272 335 245 313 245 270 c 2
 245 210 l 9
 180 210 l 17
 180 270 l 2
EndSplineSet
EndChar

StartChar: m
Encoding: 109 109 14
Width: 905
Flags: HMW
LayerCount: 2
Back
SplineSet
365 270 m 2
 365 419 483 510 600 510 c 0
 717 510 835 419 835 270 c 2
 835 0 l 9
 660 0 l 17
 660 270 l 2
 660 313 633 335 600 335 c 3
 567 335 540 313 540 270 c 2
 540 0 l 9
 365 0 l 17
 365 270 l 2
70 270 m 2
 70 419 188 510 305 510 c 0
 422 510 540 419 540 270 c 2
 540 0 l 9
 365 0 l 17
 365 270 l 2
 365 313 338 335 305 335 c 3
 272 335 245 313 245 270 c 2
 245 0 l 9
 70 0 l 17
 70 270 l 2
365 280 m 2
 365 419 481 510 595 510 c 0
 709 510 825 419 825 280 c 2
 825 0 l 9
 650 0 l 17
 650 280 l 2
 650 313 625 335 595 335 c 3
 565 335 540 313 540 280 c 2
 540 0 l 9
 365 0 l 17
 365 280 l 2
80 280 m 2
 80 419 196 510 310 510 c 0
 424 510 540 419 540 280 c 2
 540 0 l 9
 365 0 l 17
 365 280 l 2
 365 313 340 335 310 335 c 3
 280 335 255 313 255 280 c 2
 255 0 l 9
 80 0 l 17
 80 280 l 2
EndSplineSet
Fore
SplineSet
415 270 m 2
 415 429 496 510 630 510 c 0
 734 510 835 419 835 270 c 2
 835 0 l 9
 660 0 l 17
 660 270 l 2
 660 313 630 335 600 335 c 3
 570 335 540 313 540 270 c 2
 540 0 l 9
 415 0 l 17
 415 270 l 2
70 270 m 2
 70 419 171 510 275 510 c 0
 409 510 490 429 490 270 c 2
 490 0 l 9
 365 0 l 17
 365 270 l 2
 365 313 335 335 305 335 c 3
 275 335 245 313 245 270 c 2
 245 0 l 9
 70 0 l 17
 70 270 l 2
EndSplineSet
EndChar

StartChar: e
Encoding: 101 101 15
Width: 600
Flags: HMW
LayerCount: 2
Back
SplineSet
215 250 m 3
 215 207 249 165 300 165 c 3
 351 165 385 207 385 250 c 3
 385 293 351 335 300 335 c 3
 249 335 215 293 215 250 c 3
  Spiro
    215 250 o
    225.239 208.001 o
    254.445 177.014 o
    300 165 o
    345.555 177.014 o
    374.761 208.001 o
    385 250 o
    374.761 291.999 o
    345.555 322.986 o
    300 335 o
    254.445 322.986 o
    225.239 291.999 o
    0 0 z
  EndSpiro
40 250 m 3
 40 391.003448235 149 510 300 510 c 3
 453 510 560 388.007042079 560 250 c 3
 560 111 453 -10 300 -10 c 3
 150 -10 40 109 40 250 c 3
  Spiro
    40 250 o
    73.121 381.736 o
    164.264 474.882 o
    300 510 o
    437.514 474.882 o
    527.767 381.736 o
    560 250 o
    527.767 118.264 o
    437.514 25.118 o
    300 -10 o
    164.264 25.118 o
    73.121 118.264 o
    0 0 z
  EndSpiro
EndSplineSet
Fore
SplineSet
300 175 m 2
 560 175 l 1
 560 0 l 1
 300 0 l 2
 150 0 40 109 40 250 c 3
 40 391 149 510 300 510 c 0
 453 510 560 388 560 250 c 0
 560 239 559 229 558 218 c 1
 379 218 l 1
 383 228 385 239 385 250 c 0
 385 293 351 335 300 335 c 0
 249 335 215 293 215 255 c 0
 215 217 249 175 300 175 c 2
EndSplineSet
EndChar

StartChar: y
Encoding: 121 121 16
Width: 610
Flags: HMW
LayerCount: 2
Back
SplineSet
395 220 m 2
 395 91 379 -10 265 -10 c 0
 151 -10 75 81 75 220 c 2
 75 500 l 9
 250 500 l 17
 250 220 l 2
 250 187 275 165 305 165 c 3
 335 165 360 187 360 220 c 2
 360 280 l 9
 395 280 l 17
 395 220 l 2
195 -78 m 3
 195 -121 229 -163 280 -163 c 3
 331 -163 365 -121 365 -78 c 3
 365 -35 331 7 280 7 c 3
 229 7 195 -35 195 -78 c 3
  Spiro
    195 -78 o
    205.239 -119.999 o
    234.445 -150.986 o
    280 -163 o
    325.555 -150.986 o
    354.761 -119.999 o
    365 -78 o
    354.761 -36.001 o
    325.555 -5.014 o
    280 7 o
    234.445 -5.014 o
    205.239 -36.001 o
    0 0 z
  EndSpiro
20 -78 m 3
 20 63.00390625 129 182 280 182 c 3
 433 182 540 60.0068359375 540 -78 c 3
 540 -217 433 -338 280 -338 c 3
 130 -338 20 -219 20 -78 c 3
  Spiro
    20 -78 o
    53.121 53.736 o
    144.264 146.882 o
    280 182 o
    417.514 146.882 o
    507.767 53.736 o
    540 -78 o
    507.767 -209.736 o
    417.514 -302.882 o
    280 -338 o
    144.264 -302.882 o
    53.121 -209.736 o
    0 0 z
  EndSpiro
EndSplineSet
Fore
SplineSet
430 230 m 2
 430 101 394 -10 280 -10 c 0
 156 -10 70 81 70 230 c 2
 70 500 l 9
 245 500 l 17
 245 230 l 2
 245 187 272 165 305 165 c 3
 338 165 365 187 365 230 c 2
 365 290 l 9
 430 290 l 17
 430 230 l 2
154 -128 m 1
 196 -155 222.989257812 -163 258 -163 c 3
 325.553710938 -163 365 -130 365 -78 c 2
 365 500 l 1
 540 500 l 1
 540 -82 l 2
 540 -226 424.00390625 -338 280 -338 c 3
 234 -338 196 -328 154 -307 c 1
 154 -128 l 1
EndSplineSet
EndChar

StartChar: w
Encoding: 119 119 17
Width: 905
Flags: HMW
LayerCount: 2
Fore
SplineSet
490 230 m 2
 490 71 422 0 305 0 c 2
 70 0 l 9
 70 500 l 1
 245 500 l 17
 245 175 l 17
 305 175 l 2
 338 175 365 187 365 230 c 2
 365 500 l 9
 490 500 l 17
 490 230 l 2
835 230 m 2
 835 81 734 -10 630 -10 c 0
 496 -10 415 71 415 230 c 2
 415 500 l 9
 540 500 l 17
 540 230 l 2
 540 187 570 165 600 165 c 3
 630 165 660 187 660 230 c 2
 660 500 l 9
 835 500 l 17
 835 230 l 2
EndSplineSet
EndChar

StartChar: uni0261
Encoding: 609 609 18
Width: 630
Flags: HMW
LayerCount: 2
Fore
SplineSet
375 -78 m 2
 375 246 l 2
 375 309 338 335 300 335 c 3
 250 335 215 294 215 250 c 0
 215 205 251 165 300 165 c 0
 312.019857621 165 320.12109375 166.654296875 332 170.997070312 c 1
 332 -8.1669921875 l 1
 324.494140625 -9.0341796875 312.482421875 -10 300 -10 c 0
 156 -10 40 105 40 249 c 0
 40 393 156 510 300 510 c 0
 431 510 550 410 550 248 c 2
 550 -82 l 2
 550 -226 434.00390625 -338 290 -338 c 3
 244 -338 206 -328 164 -307 c 1
 164 -132 l 1
 206 -157 232.989257812 -163 268 -163 c 3
 335.553710938 -163 375 -130 375 -78 c 2
EndSplineSet
EndChar

StartChar: f
Encoding: 102 102 19
Width: 421
Flags: HMW
LayerCount: 2
Fore
SplineSet
340 838 m 0
 364 838 385 835 401 831 c 1
 401 656 l 1
 386 661 368 663 355 663 c 0
 275.991210938 663 255 611 255 578 c 2
 255 500 l 1
 392 500 l 1
 392 332 l 1
 255 332 l 1
 255 0 l 1
 80 0 l 1
 80 578 l 2
 80 726 195.99609375 838 340 838 c 0
EndSplineSet
EndChar

StartChar: t
Encoding: 116 116 20
Width: 421
Flags: HMW
LayerCount: 2
Fore
SplineSet
340 -10 m 0
 195.99609375 -10 80 102 80 250 c 2
 80 679 l 1
 255 679 l 1
 255 500 l 1
 392 500 l 1
 392 332 l 1
 255 332 l 1
 255 250 l 2
 255 217 275.991210938 165 355 165 c 0
 368 165 386 167 401 172 c 1
 401 -3 l 1
 385 -7 364 -10 340 -10 c 0
EndSplineSet
EndChar

StartChar: j
Encoding: 106 106 21
Width: 410
Flags: HMW
LayerCount: 2
Back
SplineSet
144 669 m 0
 144 724 189 769 244 769 c 0
 299 769 344 724 344 669 c 0
 344 614 299 569 244 569 c 0
 189 569 144 614 144 669 c 0
157 -328 m 9
 157 500 l 1
 332 500 l 1
 332 -328 l 17
 157 -328 l 9
EndSplineSet
Fore
SplineSet
143 679 m 0
 143 734 188 779 243 779 c 0
 298 779 343 734 343 679 c 0
 343 624 298 579 243 579 c 0
 188 579 143 624 143 679 c 0
156 500 m 1
 331 500 l 1
 331 -78 l 2
 331 -226 215.00390625 -338 71 -338 c 0
 47 -338 26 -335 10 -331 c 1
 10 -156 l 1
 25 -161 43 -163 56 -163 c 0
 135.008789062 -163 156 -111 156 -78 c 2
 156 500 l 1
EndSplineSet
EndChar

StartChar: c
Encoding: 99 99 22
Width: 401
Flags: HMW
LayerCount: 2
Back
SplineSet
300 510 m 3
 324 510 345 507 361 503 c 1
 361 328 l 1
 346 333 328 335 315 335 c 3
 235.991210938 335 215 283 215 250 c 2
 215 0 l 1
 40 0 l 1
 40 250 l 2
 40 398 155.99609375 510 300 510 c 3
EndSplineSet
Fore
SplineSet
313 165 m 3
 330 165 345 167 361 172 c 1
 361 -3 l 1
 345 -7 324 -10 300 -10 c 3
 150 -10 40 109 40 250 c 3
 40 391.003448235 149 510 300 510 c 7
 324 510 345 507 361 503 c 5
 361 328 l 5
 345 333 330.029386366 335 313 335 c 7
 246.992424677 335 215 293 215 250 c 3
 215 207 247 165 313 165 c 3
EndSplineSet
EndChar

StartChar: s
Encoding: 115 115 23
Width: 507
Flags: HMW
LayerCount: 2
Back
SplineSet
166 250 m 3
 166 398 281.99609375 510 426 510 c 3
 450 510 471 507 487 503 c 1
 487 328 l 1
 472 333 454 335 441 335 c 3
 361.991210938 335 341 283 341 250 c 3
 341 102 225.00390625 -10 81 -10 c 3
 57 -10 36 -7 20 -3 c 1
 20 172 l 1
 35 167 53 165 66 165 c 3
 145.008789062 165 166 217 166 250 c 3
EndSplineSet
Fore
SplineSet
166 270 m 0
 177 417 302 510 406 510 c 3
 440 510 471 507 487 503 c 1
 487 328 l 1
 472 333 454 335 441 335 c 3
 362 335 345.641540955 292.027865493 341 230 c 0
 330 83 205 -10 101 -10 c 3
 67 -10 36 -7 20 -3 c 1
 20 172 l 1
 35 167 53 165 66 165 c 3
 145 165 161.358459045 207.972134507 166 270 c 0
EndSplineSet
EndChar

StartChar: v
Encoding: 118 118 24
Width: 610
Flags: HMW
LayerCount: 2
Fore
SplineSet
540 230 m 2
 540 81 422 0 305 0 c 2
 70 0 l 9
 70 500 l 1
 245 500 l 17
 245 175 l 17
 305 175 l 2
 338 175 365 187 365 230 c 2
 365 500 l 9
 540 500 l 17
 540 230 l 2
EndSplineSet
EndChar

StartChar: k
Encoding: 107 107 26
Width: 641
Flags: HMW
LayerCount: 2
Fore
SplineSet
306 210 m 1
 232 210 l 25
 232 342 l 25
 306 342 l 1
 354 342 396 387 396 430 c 2
 396 500 l 9
 571 500 l 17
 571 430 l 2
 571 281 438 210 306 210 c 1
306 305 m 1
 438 305 571 234 571 85 c 2
 571 0 l 9
 396 0 l 17
 396 85 l 2
 396 128 354 173 306 173 c 5
 232 173 l 29
 232 305 l 25
 306 305 l 1
80 828 m 1
 255 828 l 1
 255 0 l 1
 80 0 l 1
 80 828 l 1
EndSplineSet
EndChar

StartChar: z
Encoding: 122 122 27
Width: 470
Flags: HMW
LayerCount: 2
Back
SplineSet
428 -82 m 17
 428 -226 312.00390625 -338 168 -338 c 3
 122 -338 84 -328 42 -307 c 1
 42 -132 l 1
 84 -157 110.989257812 -163 146 -163 c 3
 213.553710938 -163 253 -130 253 -78 c 9
 428 -82 l 17
EndSplineSet
Fore
SplineSet
43 479 m 1
 82 499 121 510 168 510 c 3
 314 510 424 393.950195312 424 260 c 3
 424 119 298 45 172 45 c 2
 68 45 l 5
 68 169 l 5
 122 169 l 2
 236 169 249 211 249 255 c 3
 249 310 203.009765625 335 144 335 c 3
 99.9501953125 335 75 322 43 304 c 1
 43 479 l 1
41 -307 m 1
 41 -132 l 1
 73 -150 99.9501953125 -163 144 -163 c 3
 203.009765625 -163 255 -138 255 -83 c 3
 255 -39 236 3 122 3 c 2
 68 3 l 5
 68 127 l 5
 172 128 l 2
 298 128 430 53 430 -88 c 3
 430 -221.950195312 314 -338 168 -338 c 3
 121 -338 80 -327 41 -307 c 1
EndSplineSet
EndChar

StartChar: .notdef
Encoding: 1114112 -1 28
Width: 652
Flags: HMW
LayerCount: 2
Fore
SplineSet
550 753 m 1
 173 30 l 1
 99 76 l 1
 476 799 l 1
 550 753 l 1
99 753 m 1
 173 799 l 1
 550 76 l 1
 476 30 l 1
 99 753 l 1
170 728 m 1
 170 100 l 1
 482 100 l 1
 482 728 l 1
 170 728 l 1
70 828 m 1
 582 828 l 1
 582 0 l 1
 70 0 l 1
 70 828 l 1
EndSplineSet
EndChar

StartChar: period
Encoding: 46 46 29
Width: 404
Flags: HMW
LayerCount: 2
Fore
SplineSet
100 92 m 0
 100 148 146 194 202 194 c 0
 258 194 304 148 304 92 c 0
 304 36 258 -10 202 -10 c 0
 146 -10 100 36 100 92 c 0
EndSplineSet
EndChar

StartChar: comma
Encoding: 44 44 30
Width: 404
Flags: HMW
LayerCount: 2
Back
SplineSet
100 92 m 0
 100 150 144 194 202 194 c 0
 267 194 310 136 310 41 c 0
 310 -58 263 -146 202 -146 c 1
 202 -10 l 1
 144 -10 100 34 100 92 c 0
51 43 m 0
 51 126 119 194 202 194 c 0
 285 194 353 126 353 43 c 0
 353 -40 285 -108 202 -108 c 0
 119 -108 51 -40 51 43 c 0
100 92 m 0
 100 148 146 194 202 194 c 0
 258 194 304 148 304 92 c 0
 304 36 258 -10 202 -10 c 0
 146 -10 100 36 100 92 c 0
EndSplineSet
Fore
SplineSet
100 92 m 0
 100 148 146 194 202 194 c 0
 258 194 309 150 309 52 c 0
 309 -60 248 -132 202 -132 c 1
 202 -10 l 1
 146 -10 100 36 100 92 c 0
EndSplineSet
EndChar

